<?xml version="1.0" encoding="UTF-8"?>
<svg id="a" data-name="Capa 3" xmlns="http://www.w3.org/2000/svg" viewBox="0 0 2010.24 1058.93">
  <path d="M1661.4,471.14c-3.8-20.71-16.48-37.83-33.7-45.52l-60.4-26.9v71.17l11.44,5.1c5.16,2.31,8.97,7.45,10.1,13.65,1.13,6.22-.53,12.7-4.45,17.19l-387.53,444.17c-7.67,8.77-19.12,11.53-29.24,7.04l-445.53-198.61c-24.77-10.76-24.79-49.38-21.68-99.4,2.71-43.31,14.85-100.06,56.93-97.38l384.4,171.36c34.46,15.35,73.56,5.85,99.64-24.21l371.54-428.67c13-14.99,18.54-36.49,14.71-57.16-3.82-20.68-16.48-37.77-33.67-45.41L1211.91,7.25c-34.46-15.35-73.58-5.85-99.64,24.21l-118.36,136.55h75.16c9.66,0,17.5,7.84,17.5,17.5v77c0,9.66-7.84,17.5-17.5,17.5h-133c-9.66,0-17.5,7.84-17.5,17.5v133c0,9.66-7.84,17.5-17.5,17.5h-77c-9.66,0-17.5-7.84-17.5-17.5v-46.36l-124.71,143.88c-34.04,32.11-43.29,91.99-43.29,145.17s3.09,117.02,55.69,141.82l-12.4-3.33,460.08,205.07c34.36,15.31,73.36,5.91,99.43-23.97l405.18-464.43c13.06-14.97,18.65-36.49,14.84-57.22Z" stroke-width="0"/>
  <path d="M936.08,168c-9.66,0-17.5-7.84-17.5-17.5V17.5c0-9.66-7.84-17.5-17.5-17.5h-77c-9.66,0-17.5,7.84-17.5,17.5v133c0,9.66-7.84,17.5-17.5,17.5h-133c-9.66,0-17.5,7.84-17.5,17.5v77c0,9.66,7.84,17.5,17.5,17.5h133c9.66,0,17.5,7.84,17.5,17.5v86.64l187.34-216.14h-57.84Z" stroke-width="0"/>
</svg>