<?xml version="1.0" encoding="UTF-8"?>
<svg id="uuid-4071acd4-2814-4174-ba65-7dc723af1ce7" data-name="Capa 1" xmlns="http://www.w3.org/2000/svg" viewBox="0 0 896 1024">
  <path class="uuid-03a64696-8049-4745-bacc-440fab3f0f55" d="M829.42,932.11c-.8.15-4.52.83-10.58,1.94-238.88,43.95-282.82,51.5-287.75,52.09-11.76,1.4-20.55.69-26.88-2.17-3.95-1.79-6.09-3.96-6.66-4.91.28-1.7,2.38-5.74,3.66-8.21,1.25-2.4,2.66-5.13,3.9-8.03,8.22-19.26,2.47-38.79-15.01-50.98-13.04-9.09-30.32-12.78-51.39-10.97-12.58,1.08-233.03,39.02-354.13,59.95l-59.44,47.98c138.62-24.02,402.7-69.5,416.59-70.88,12.41-1.07,22.1.55,28.01,4.67,3.44,2.4,3.1,3.19,2.19,5.31-.68,1.59-1.65,3.47-2.69,5.45-3.97,7.64-9.4,18.09-7.6,31.05,1.97,14.21,12.16,26.45,27.95,33.59,8.88,4.02,19.07,6.01,30.88,6.01,4.66,0,9.58-.31,14.77-.93,9.5-1.13,107.06-18.77,289.97-52.42,6.02-1.11,9.73-1.79,10.52-1.93,9.85-1.79,16.41-11.44,14.66-21.55-1.75-10.11-11.14-16.85-20.99-15.05Z"/>
  <path class="uuid-03a64696-8049-4745-bacc-440fab3f0f55" d="M188.4,751.48l-153.82,165.17c-16.94,18.19-28.87,40.67-34.58,65.15l218.41-176.32c68.37,31.12,122.99,41.04,164.85,41.04,73.54,0,107.68-30.62,107.68-30.62-68.46-36.57-78.22-104.82-78.22-104.82,52.43,22.76,161.66,49.58,161.66,49.58,145.05-99.38,220.86-314.55,220.86-314.55-15.02,4.24-29.38,6-42.91,6-68.08,0-114.85-44.75-114.85-44.75l189.5-42.36C889.97,232.31,896,0,896,0L319.84,526.05c-65.25,59.57-111.13,138.26-131.44,225.44Z"/>
</svg>