<?xml version="1.0" encoding="UTF-8"?>
<svg id="a" data-name="Capa 3" xmlns="http://www.w3.org/2000/svg" viewBox="0 0 2010.24 1058.93">
  <polygon points=".01 399.39 .01 399.38 0 399.34 .01 399.39" stroke-width="0"/>
  <path d="M6.1,413.89l-.09-.11h0s.1.11.1.11Z" stroke-width="0"/>
  <path d="M6.1,346.9l-.09-.11h0l.1.11Z" stroke-width="0"/>
  <path d="M.01,332.41s0-.02,0-.03v-.02s0,.05,0,.05Z" stroke-width="0"/>
  <path d="M1662.57,401.98c.02-4.88-.87-9.6-2.3-14.08,1.4-4.14,2.14-8.31,2.16-12.35.03-6.35-1.61-12.48-4.1-17.41l-.08-.15c-.76-1.48-1.79-3.05-2.93-4.62v-118.5c4.54-6.98,7.24-15.38,7.25-24.4,0-17.45-9.81-33.12-24.82-39.72L1267.04,4.69h-1.08c-7.78-2.93-15.86-4.69-24.04-4.69s-16,1.67-23.7,4.52h-.96l-543.34,234.72-1.35.81.03.05c-6.93,3.91-12.06,9.34-15.6,14.6-6.19,9.22-9.36,18.95-11.66,27.78l-.02.12c-3.46,13.71-4.9,27.62-5.79,39.4l-.02.1c-.82,11.83-.87,21.83-.93,25.93v2.29c.02,14.36.76,33.03,3.81,51l.05.19c1.61,9.03,3.88,18.21,7.74,27.14l.06.14v.03c1.98,4.4,4.53,9.1,8.07,13.59l.08.1c.26.33.63.62.92.93-.74.93-1.71,1.83-2.32,2.77-6.21,9.21-9.36,18.93-11.66,27.74l-.02.09v.03c-3.46,13.71-4.9,27.64-5.79,39.41l-.02.09c-.82,11.85-.87,21.83-.94,25.95v2.29c.02,14.38.76,33.05,3.83,51.04l.03.14c1.61,9.05,3.88,18.24,7.74,27.17l.08.15c1.95,4.36,4.5,9.07,8.06,13.6l.08.11c.64.83,1.59,1.57,2.35,2.39-1.27,1.5-2.73,2.98-3.75,4.48-6.21,9.22-9.36,18.95-11.66,27.74l-.05.24.03-.11c-3.46,13.71-4.9,27.64-5.79,39.42l-.02.1c-.82,11.83-.87,21.83-.93,25.97v2.24c.02,14.4.76,33.09,3.83,51.07l.03.14c1.61,9.04,3.88,18.22,7.74,27.14l.08.17c1.95,4.38,4.5,9.07,8.06,13.6l-.26-.31.34.43c3.39,4.22,8.06,8.31,13.88,11.36l-.06.1.11.07.82.5,399.89,176.93.92.41c8.86,3.88,18.29,5.86,27.76,5.86s18.61-1.91,27.39-5.76l511.81-222.97v-.02c5.9-2.55,11.47-6.71,15.73-13.38l.02.02s.02-.05.03-.09c.02-.02.03-.02.05-.05h-.02c4.04-6.55,5.68-13.45,5.71-20,.03-6.35-1.61-12.48-4.1-17.41l-.08-.15v.02c-.76-1.48-1.79-3.07-2.93-4.64v-118.48c4.54-6.98,7.24-15.41,7.25-24.41.02-5.45-1.06-10.74-2.88-15.69,1.83-4.65,2.72-9.4,2.73-13.93.03-6.36-1.61-12.46-4.1-17.43l-.08-.15c-.76-1.47-1.79-3.05-2.93-4.62v-118.47c4.53-6.99,7.23-15.41,7.25-24.39ZM1071.12,968.99l-380.84-168.52-1.43-1.79c-1.19-1.98-2.72-5.76-3.94-10.45-1.9-7.02-3.2-16.16-3.99-25.4-.79-9.22-1.06-18.52-1.06-26.31v-1.84c.06-6.02.27-23.43,2.59-39.81,1.09-8.17,2.78-16.05,4.87-21.64l.44-1.02,383.36,166.73v130.05h0ZM1071.12,774.28l-346.53-153.38-34.3-15.14-1.43-1.79c-1.19-2-2.72-5.76-3.94-10.43-1.9-7.05-3.2-16.17-3.99-25.41-.79-9.22-1.06-18.52-1.06-26.3v-1.86c.06-6.03.27-23.43,2.59-39.83,1.09-8.16,2.78-16.05,4.87-21.62l.44-1.02,383.36,166.72v130.05h0ZM1071.12,463.31v119.47l-350.21-155.02-30.62-13.5-1.43-1.81c-1.19-1.98-2.72-5.76-3.94-10.41-1.9-7.04-3.2-16.16-3.99-25.42-.79-9.24-1.06-18.52-1.06-26.29v-1.86c.06-6.02.27-23.43,2.59-39.81,1.09-8.17,2.78-16.05,4.87-21.64l.44-1,383.36,166.71v10.59h0ZM1614.04,759.25l-499.14,217.4-1.32.64c-3.84,1.62-7.85,2.47-11.87,2.47-1.43,0-2.89-.23-4.31-.47v-131.67c1.88.23,3.83.35,5.71.35,7.51,0,15.04-1.59,22.07-4.69l.48-.22,488.38-213.69v129.9h0ZM1614.04,563.8v.72l-499.14,217.42-1.32.62c-3.84,1.64-7.85,2.47-11.87,2.47-1.43,0-2.89-.22-4.31-.43v-131.69c1.88.22,3.83.35,5.71.35,7.51,0,15.04-1.59,22.07-4.67l.48-.24,342.54-149.87,145.84-63.83v129.16h0ZM1614.04,369.09v3.95l-499.14,217.4-1.32.62c-3.84,1.64-7.85,2.48-11.87,2.48-1.43,0-2.89-.23-4.31-.45v-131.71c1.88.24,3.83.34,5.71.34,7.51,0,15.04-1.57,22.07-4.65l.48-.23,488.38-213.71v125.95h0Z" stroke-width="0"/>
  <polygon points=".01 467.51 .01 467.49 0 467.46 .01 467.51" stroke-width="0"/>
</svg>